<?xml version="1.0" encoding="UTF-8" standalone="no"?>
<svg
   xmlns:dc="http://purl.org/dc/elements/1.1/"
   xmlns:cc="http://creativecommons.org/ns#"
   xmlns:rdf="http://www.w3.org/1999/02/22-rdf-syntax-ns#"
   xmlns:svg="http://www.w3.org/2000/svg"
   xmlns="http://www.w3.org/2000/svg"
   xmlns:sodipodi="http://sodipodi.sourceforge.net/DTD/sodipodi-0.dtd"
   xmlns:inkscape="http://www.inkscape.org/namespaces/inkscape"
   version="1.1"
   id="Layer_1"
   x="0px"
   y="0px"
   viewBox="0 0 42 42"
   enable-background="new 0 0 42 42"
   xml:space="preserve"
   inkscape:version="0.91 r13725"
   sodipodi:docname="CassandraDatastaxIn.svg"><metadata
     id="metadata617"><rdf:RDF><cc:Work
         rdf:about=""><dc:format>image/svg+xml</dc:format><dc:type
           rdf:resource="http://purl.org/dc/dcmitype/StillImage" /><dc:title></dc:title></cc:Work></rdf:RDF></metadata><defs
     id="defs615" /><sodipodi:namedview
     pagecolor="#ffffff"
     bordercolor="#666666"
     borderopacity="1"
     objecttolerance="10"
     gridtolerance="10"
     guidetolerance="10"
     inkscape:pageopacity="0"
     inkscape:pageshadow="2"
     inkscape:window-width="1742"
     inkscape:window-height="884"
     id="namedview613"
     showgrid="false"
     inkscape:zoom="24.142646"
     inkscape:cx="16.832276"
     inkscape:cy="23.826843"
     inkscape:window-x="1643"
     inkscape:window-y="77"
     inkscape:window-maximized="0"
     inkscape:current-layer="Layer_1" />
<path
     d="m 13,17.2 c 0.1,-0.5 2.9,-1.5 7.9,-1.5 5,0 7.9,1 8,1.5 l 0,0.8 c -1,0.7 -3.9,1.3 -7.9,1.3 -4.1,0 -7,-0.6 -8.1,-1.3 l 0,-0.8 z"
     id="path583"
     inkscape:connector-curvature="0"
     style="fill:#ffecce" /><path
     d="M 26.99079,24.85386 C 27.894934,24.652065 28.598158,24.349372 29,24.046679 L 29,18.8 c -2.210131,1.109874 -6.730854,1.210772 -7.936381,1.210772 -2.310591,0 -4.621183,-0.201795 -6.228552,-0.605386 C 14.031383,19.203591 13.42862,19.001795 13.026778,18.8 l 0,5.246679 c 1.105066,0.706284 3.91796,1.31167 8.036841,1.31167 2.310592,0.100897 4.420263,-0.100898 5.927171,-0.504489 z"
     id="path585"
     inkscape:connector-curvature="0"
     style="fill:#ffecce" /><path
     fill="#FFECCE"
     d="M21.1,26.2c-2.3,0-4.6-0.2-6.2-0.6c-0.8-0.2-1.4-0.4-1.8-0.6v5c0,0.6,2.8,1.7,8,1.7h0c1.5,0,2.9-0.1,4.1-0.3  l3.7-3.7V25C26.7,26.1,22.2,26.2,21.1,26.2z"
     id="path587" /><path
     fill="#3D6480"
     d="M21.1,31.7L21.1,31.7c-5.2,0-8-1.1-8-1.7v-5c0.5,0.2,1.1,0.4,1.8,0.6c1.7,0.4,3.9,0.6,6.2,0.6  c1.1,0,5.6-0.1,7.9-1.2v2.6l1.7-1.7v-8.5c0-3-7.5-3.2-9.8-3.2c-2.9,0-9.6,0.3-9.6,3.2v12.5c0,3.3,8.1,3.4,9.7,3.4h0  c0.8,0,1.5,0,2.2-0.1l1.9-1.9C24,31.6,22.6,31.7,21.1,31.7z M13,17.2c0.1-0.5,2.9-1.5,7.9-1.5c5,0,7.9,1,8,1.5v0.8  c-1,0.7-3.9,1.3-7.9,1.3c-4.1,0-7-0.6-8.1-1.3V17.2z M13,18.8c0.5,0.2,1.1,0.4,1.8,0.6c1.7,0.4,3.9,0.6,6.2,0.6  c1.1,0,5.6-0.1,7.9-1.2v5.2c-0.4,0.3-1.1,0.5-2,0.8c-1.5,0.4-3.6,0.6-5.9,0.6c-4.1,0-7-0.6-8-1.3V18.8z"
     id="path589" /><polygon
     fill="#3D6480"
     points="37.2,32.7 37.2,35.8 32,30.6 30.7,31.9 35.9,37.2 32.7,37.2 32.7,39.1 39.1,39.1 39.1,32.7 "
     id="polygon591" /><g
     id="g593"
     style="image-rendering:optimizeQuality"><text
       xml:space="preserve"
       style="font-style:normal;font-weight:normal;font-size:40px;line-height:125%;font-family:sans-serif;letter-spacing:0px;word-spacing:0px;fill:#000000;fill-opacity:1;stroke:none;stroke-width:1px;stroke-linecap:butt;stroke-linejoin:miter;stroke-opacity:1"
       x="3.3342619"
       y="16.788301"
       id="text7379"
       sodipodi:linespacing="125%"><tspan
         sodipodi:role="line"
         id="tspan7381"
         x="3.3342619"
         y="16.788301"></tspan></text>
<text
       xml:space="preserve"
       style="font-style:normal;font-variant:normal;font-weight:normal;font-stretch:normal;font-size:10px;line-height:125%;font-family:'Ubuntu Condensed';-inkscape-font-specification:'Ubuntu Condensed, Normal';text-align:start;letter-spacing:0px;word-spacing:0px;writing-mode:lr-tb;text-anchor:start;fill:#3d6480;fill-opacity:1;stroke:none;stroke-width:1px;stroke-linecap:butt;stroke-linejoin:miter;stroke-opacity:1"
       x="2.4568243"
       y="12.576601"
       id="text7383"
       sodipodi:linespacing="125%"><tspan
         sodipodi:role="line"
         id="tspan7385"
         x="2.4568243"
         y="12.576601">Cassandra</tspan></text>
</g><g
     id="g8321"><circle
       r="0.62708831"
       cy="19.38332"
       cx="16.690191"
       id="path7927-7-44"
       style="fill:#ffffff;fill-opacity:1" /><circle
       r="0.5977996"
       cy="19.38332"
       cx="16.690191"
       id="path7927-7"
       style="fill:#007797;fill-opacity:1" /><circle
       r="0.98190725"
       cy="17.999329"
       cx="18.493582"
       id="path7927-7-9-5"
       style="fill:#ffffff;fill-opacity:1" /><circle
       r="0.94529635"
       cy="17.999329"
       cx="18.493582"
       id="path7927-7-9"
       style="fill:#007797;fill-opacity:1" /><circle
       r="1.2455254"
       cy="18.935301"
       cx="21.562466"
       id="path7927-7-2-9"
       style="fill:#ffffff;fill-opacity:1" /><circle
       r="1.2089145"
       cy="18.935301"
       cx="21.562466"
       id="path7927-7-2"
       style="fill:#007797;fill-opacity:1" /><circle
       r="1.477856"
       cy="21.194036"
       cx="24.396366"
       id="path7927-7-4-4"
       style="fill:#ffffff;fill-opacity:1" /><circle
       r="1.4485674"
       cy="21.194036"
       cx="24.396366"
       id="path7927-7-4"
       style="fill:#007797;fill-opacity:1" /><circle
       r="1.2022552"
       cy="24.404047"
       cx="26.264322"
       id="path7927-7-6-8"
       style="fill:#ffffff;fill-opacity:1" /><circle
       r="1.1729666"
       cy="24.404047"
       cx="26.264322"
       id="path7927-7-6"
       style="fill:#007797;fill-opacity:1" /><circle
       r="0.86674124"
       cy="27.30385"
       cx="25.928812"
       id="path7927-7-8-1"
       style="fill:#ffffff;fill-opacity:1" /><circle
       r="0.83745253"
       cy="27.30385"
       cx="25.928812"
       id="path7927-7-8"
       style="fill:#007797;fill-opacity:1" /><circle
       r="0.52856547"
       cy="28.427557"
       cx="23.817202"
       id="path7927-7-7-3"
       style="fill:#ffffff;fill-opacity:1" /><circle
       r="0.51392114"
       cy="28.427557"
       cx="23.817202"
       id="path7927-7-7"
       style="fill:#007797;fill-opacity:1" /><path
       inkscape:connector-curvature="0"
       id="path8118"
       d="m 17.751323,27.610073 4.002203,-3.97824"
       style="fill:none;fill-rule:evenodd;stroke:#000000;stroke-width:0.94681323;stroke-linecap:round;stroke-linejoin:miter;stroke-miterlimit:4;stroke-dasharray:none;stroke-opacity:1" /><path
       inkscape:connector-curvature="0"
       id="path8118-0"
       d="M 21.777491,27.598089 17.799253,23.595887"
       style="fill:none;fill-rule:evenodd;stroke:#000000;stroke-width:0.94681323;stroke-linecap:round;stroke-linejoin:miter;stroke-miterlimit:4;stroke-dasharray:none;stroke-opacity:1" /><circle
       r="0.45200917"
       cy="21.508907"
       cx="16.491146"
       id="path7927-75"
       style="fill:#ffffff;fill-opacity:1;stroke:none;stroke-width:1;stroke-miterlimit:4;stroke-dasharray:none;stroke-opacity:1" /><circle
       r="0.43004265"
       cy="21.508907"
       cx="16.491146"
       id="path7927"
       style="fill:#007797;fill-opacity:1;stroke:none;stroke-width:1;stroke-miterlimit:4;stroke-dasharray:none;stroke-opacity:1" /></g></svg>
