<?xml version="1.0" encoding="UTF-8" standalone="no"?>
<svg
   xmlns:dc="http://purl.org/dc/elements/1.1/"
   xmlns:cc="http://creativecommons.org/ns#"
   xmlns:rdf="http://www.w3.org/1999/02/22-rdf-syntax-ns#"
   xmlns:svg="http://www.w3.org/2000/svg"
   xmlns="http://www.w3.org/2000/svg"
   xmlns:sodipodi="http://sodipodi.sourceforge.net/DTD/sodipodi-0.dtd"
   xmlns:inkscape="http://www.inkscape.org/namespaces/inkscape"
   version="1.1"
   id="Layer_1"
   x="0px"
   y="0px"
   viewBox="0 0 42 42"
   enable-background="new 0 0 42 42"
   xml:space="preserve"
   inkscape:version="0.91 r13725"
   sodipodi:docname="CassandraDatastaxOut.svg"><metadata
     id="metadata9669"><rdf:RDF><cc:Work
         rdf:about=""><dc:format>image/svg+xml</dc:format><dc:type
           rdf:resource="http://purl.org/dc/dcmitype/StillImage" /><dc:title></dc:title></cc:Work></rdf:RDF></metadata><defs
     id="defs9667" /><sodipodi:namedview
     pagecolor="#ffffff"
     bordercolor="#666666"
     borderopacity="1"
     objecttolerance="10"
     gridtolerance="10"
     guidetolerance="10"
     inkscape:pageopacity="0"
     inkscape:pageshadow="2"
     inkscape:window-width="995"
     inkscape:window-height="675"
     id="namedview9665"
     showgrid="false"
     inkscape:zoom="24.190476"
     inkscape:cx="28.153815"
     inkscape:cy="25.047164"
     inkscape:window-x="1997"
     inkscape:window-y="136"
     inkscape:window-maximized="0"
     inkscape:current-layer="Layer_1" />
<path
     d="m 21.017323,26.317322 c 2.2,0 4.3,-0.2 5.8,-0.6 1.7,-0.5 2.1,-1 2.1,-1.1 l 0,-4.9 c -2.2,1.1 -6.7,1.2 -7.9,1.2 -2.3,0 -4.6,-0.2 -6.2,-0.6 -0.8,-0.2 -1.4,-0.4 -1.8,-0.6 l 0,5 c -0.1,0.5 2.8,1.6 8,1.6 l 0,0 z"
     id="path9637"
     inkscape:connector-curvature="0"
     style="fill:#ffecce" /><path
     fill="#FFECCE"
     d="M21.1,20.1c4,0,6.8-0.6,7.9-1.3v-5.2c-2.2,1.1-6.7,1.2-7.9,1.2c-2.3,0-4.5-0.2-6.2-0.6L13,16l0,2.8  C14.1,19.5,17,20.1,21.1,20.1z"
     id="path9639" /><path
     d="m 23.6,13.796654 c 0.1,0 0.2,0 0.4,0 0.3,0 0.6,-0.1 0.9,-0.1 0.1,0 0.2,0 0.3,0 0.3,0 0.6,-0.1 0.9,-0.1 0,0 0.1,0 0.1,0 1.3,-0.2 2.2,-0.6 2.8,-0.9 l 0,-0.8 c -0.2,-0.5 -3,-1.5 -8,-1.5 -0.8,0 -1.5,0 -2.2,0.1 l -3.1,3 c 1.4,0.3 3.3,0.5 5.5,0.5 0.8,-0.1 1.6,-0.1 2.4,-0.2 z"
     id="path9641"
     inkscape:connector-curvature="0"
     style="fill:#ffecce" /><path
     fill="#3D6480"
     d="M21.1,28.1c2.4,0,4.6-0.2,6.2-0.7c2.2-0.6,3.4-1.5,3.4-2.8V11.9c0-2.9-7.5-3.2-9.7-3.2c-0.1,0-0.3,0-0.4,0  l-1.8,1.8c0.7,0,1.4-0.1,2.2-0.1c5,0,7.9,1,8,1.5v0.8c-0.5,0.3-1.5,0.7-2.8,0.9c0,0-0.1,0-0.1,0c-0.3,0.1-0.6,0.1-0.9,0.1  c-0.1,0-0.2,0-0.3,0c-0.3,0-0.6,0.1-0.9,0.1c-0.1,0-0.2,0-0.4,0C22.8,14,22,14,21.1,14c-2.2,0-4.1-0.2-5.5-0.5l-0.7,0.7  c1.6,0.4,3.8,0.6,6.2,0.6c1.1,0,5.6-0.1,7.9-1.2v5.2c-1,0.7-3.9,1.3-7.9,1.3c-4.1,0-7-0.6-8-1.3l0-2.8l-1.7,1.7v7  C11.3,28,19.5,28.1,21.1,28.1L21.1,28.1z M13,24.7l0-5c0.5,0.2,1.1,0.4,1.8,0.6c1.7,0.4,3.9,0.6,6.2,0.6c1.1,0,5.6-0.1,7.9-1.2v4.9  c0,0.2-0.4,0.7-2.1,1.1c-1.5,0.4-3.6,0.6-5.8,0.6h0C15.9,26.4,13,25.3,13,24.7z"
     id="path9643" /><polygon
     fill="#3D6480"
     points="5.3,9.9 5.3,11.8 11.7,11.8 11.7,5.5 9.8,5.5 9.8,8.5 4.6,3.3 3.3,4.7 8.5,9.9 "
     id="polygon9645" /><g
     transform="translate(0.05192571,23.790804)"
     id="g593"
     style="image-rendering:optimizeQuality"><text
       xml:space="preserve"
       style="font-style:normal;font-weight:normal;font-size:40px;line-height:125%;font-family:sans-serif;letter-spacing:0px;word-spacing:0px;fill:#000000;fill-opacity:1;stroke:none;stroke-width:1px;stroke-linecap:butt;stroke-linejoin:miter;stroke-opacity:1"
       x="3.3342619"
       y="16.788301"
       id="text7379"
       sodipodi:linespacing="125%"><tspan
         sodipodi:role="line"
         id="tspan7381"
         x="3.3342619"
         y="16.788301" /></text>
<text
       xml:space="preserve"
       style="font-style:normal;font-variant:normal;font-weight:normal;font-stretch:normal;font-size:10px;line-height:125%;font-family:'Ubuntu Condensed';-inkscape-font-specification:'Ubuntu Condensed, Normal';text-align:start;letter-spacing:0px;word-spacing:0px;writing-mode:lr-tb;text-anchor:start;fill:#3d6480;fill-opacity:1;stroke:none;stroke-width:1px;stroke-linecap:butt;stroke-linejoin:miter;stroke-opacity:1"
       x="2.4568243"
       y="12.576601"
       id="text7383"
       sodipodi:linespacing="125%"><tspan
         sodipodi:role="line"
         id="tspan7385"
         x="2.4568243"
         y="12.576601">Cassandra</tspan></text>
</g><g
     transform="translate(-0.03075145,-5.0635271)"
     id="g8321"><circle
       r="0.62708831"
       cy="19.38332"
       cx="16.690191"
       id="path7927-7-44"
       style="fill:#ffffff;fill-opacity:1" /><circle
       r="0.5977996"
       cy="19.38332"
       cx="16.690191"
       id="path7927-7"
       style="fill:#007797;fill-opacity:1" /><circle
       r="0.98190725"
       cy="17.999329"
       cx="18.493582"
       id="path7927-7-9-5"
       style="fill:#ffffff;fill-opacity:1" /><circle
       r="0.94529635"
       cy="17.999329"
       cx="18.493582"
       id="path7927-7-9"
       style="fill:#007797;fill-opacity:1" /><circle
       r="1.2455254"
       cy="18.935301"
       cx="21.562466"
       id="path7927-7-2-9"
       style="fill:#ffffff;fill-opacity:1" /><circle
       r="1.2089145"
       cy="18.935301"
       cx="21.562466"
       id="path7927-7-2"
       style="fill:#007797;fill-opacity:1" /><circle
       r="1.477856"
       cy="21.194036"
       cx="24.396366"
       id="path7927-7-4-4"
       style="fill:#ffffff;fill-opacity:1" /><circle
       r="1.4485674"
       cy="21.194036"
       cx="24.396366"
       id="path7927-7-4"
       style="fill:#007797;fill-opacity:1" /><circle
       r="1.2022552"
       cy="24.404047"
       cx="26.264322"
       id="path7927-7-6-8"
       style="fill:#ffffff;fill-opacity:1" /><circle
       r="1.1729666"
       cy="24.404047"
       cx="26.264322"
       id="path7927-7-6"
       style="fill:#007797;fill-opacity:1" /><circle
       r="0.86674124"
       cy="27.30385"
       cx="25.928812"
       id="path7927-7-8-1"
       style="fill:#ffffff;fill-opacity:1" /><circle
       r="0.83745253"
       cy="27.30385"
       cx="25.928812"
       id="path7927-7-8"
       style="fill:#007797;fill-opacity:1" /><circle
       r="0.52856547"
       cy="28.427557"
       cx="23.817202"
       id="path7927-7-7-3"
       style="fill:#ffffff;fill-opacity:1" /><circle
       r="0.51392114"
       cy="28.427557"
       cx="23.817202"
       id="path7927-7-7"
       style="fill:#007797;fill-opacity:1" /><path
       inkscape:connector-curvature="0"
       id="path8118"
       d="m 17.751323,27.610073 4.002203,-3.97824"
       style="fill:none;fill-rule:evenodd;stroke:#000000;stroke-width:0.94681323;stroke-linecap:round;stroke-linejoin:miter;stroke-miterlimit:4;stroke-dasharray:none;stroke-opacity:1" /><path
       inkscape:connector-curvature="0"
       id="path8118-0"
       d="M 21.777491,27.598089 17.799253,23.595887"
       style="fill:none;fill-rule:evenodd;stroke:#000000;stroke-width:0.94681323;stroke-linecap:round;stroke-linejoin:miter;stroke-miterlimit:4;stroke-dasharray:none;stroke-opacity:1" /><circle
       r="0.45200917"
       cy="21.508907"
       cx="16.491146"
       id="path7927-75"
       style="fill:#ffffff;fill-opacity:1;stroke:none;stroke-width:1;stroke-miterlimit:4;stroke-dasharray:none;stroke-opacity:1" /><circle
       r="0.43004265"
       cy="21.508907"
       cx="16.491146"
       id="path7927"
       style="fill:#007797;fill-opacity:1;stroke:none;stroke-width:1;stroke-miterlimit:4;stroke-dasharray:none;stroke-opacity:1" /></g></svg>
